<?xml version="1.0" encoding="UTF-8"?>
<svg width="128" height="128" viewBox="0 0 128 128" fill="none" xmlns="http://www.w3.org/2000/svg" role="img" aria-label="Plane icon">
  <defs>
    <linearGradient id="g" x1="0" y1="0" x2="1" y2="1">
      <stop offset="0%" stop-color="#8129E4"/>
      <stop offset="100%" stop-color="#29E4B3"/>
    </linearGradient>
  </defs>
  <g transform="translate(8,10)">
    <path d="M92.6 47.4c2 .9 2 3.7 0 4.6L63.2 65.2c-1.2.6-2.5.8-3.8.7l-14.9-.9-12.6 8.8c-1.6 1.1-3.8.7-4.9-.9-.9-1.2-.9-2.9 0-4.1l8.7-12.6-1-14.9c-.1-1.3.1-2.6.7-3.8L48 9.2c.9-2 3.7-2 4.6 0l10.4 22.2 29.6 16z" fill="url(#g)"/>
    <path d="M55 72l-20.2 8.4c-1 .4-2.1.6-3.2.5l-10.6-.8c-1.4-.1-2.4-1.3-2.3-2.7.1-1.2 1-2.1 2.2-2.3l10.6-1.8c1.1-.2 2.1-.6 3-.1L55 72z" fill="#FFFFFF" opacity=".15"/>
    <circle cx="84" cy="51" r="3" fill="#FFFFFF" opacity=".6"/>
  </g>
</svg>